<svg xmlns="http://www.w3.org/2000/svg" width="1662" height="168" fill="none">
    <path fill="#F9F9F7"
          d="M609.2 58a30.303 30.303 0 0 0-8.48-3.5 36.94 36.94 0 0 0-8.89-1.16 42.439 42.439 0 0 0-15.09 2.53 48.067 48.067 0 0 0-11.81 6.43 52.45 52.45 0 0 0-8.93 8.55 70.572 70.572 0 0 0-5.37 7.46V55l-.76.47c-1.8 1.11-3.55 2.12-5.19 3-1.64.88-3.34 1.74-5 2.49a79.3 79.3 0 0 1-5.28 2.17c-1.85.68-4 1.38-6.34 2.08l-.35.11v1.49h.5a58.095 58.095 0 0 1 6.61.32c1 .11 2.27.58 2.27 3.36v75.1a19.184 19.184 0 0 1-.7 5.69 10.104 10.104 0 0 1-1.89 3.58 10.572 10.572 0 0 1-2.78 2.29c-1.14.64-2.39 1.3-3.74 2l-.27.14v1.44H560v-1.44l-.28-.14c-1.35-.67-2.6-1.33-3.73-2a10.232 10.232 0 0 1-2.79-2.29 10.09 10.09 0 0 1-1.88-3.58 19.087 19.087 0 0 1-.71-5.69v-59.5a54.466 54.466 0 0 1 5.74-8.78 49.573 49.573 0 0 1 9-8.77A52.642 52.642 0 0 1 577 61.82a35.002 35.002 0 0 1 13.57-2.67c1.411.013 2.821.113 4.22.3a14.22 14.22 0 0 1 4.21 1.21 6.754 6.754 0 0 1 2.72 2.13 3.399 3.399 0 0 1 0 3.19c-1.44 3.74-1.43 7 0 9.8a7.51 7.51 0 0 0 7.22 4.22 9.88 9.88 0 0 0 6.69-2.21 8.073 8.073 0 0 0 2.57-6.43 12.315 12.315 0 0 0-2.6-7.71 23.663 23.663 0 0 0-6.4-5.65ZM723.09 68.09a49.003 49.003 0 0 0-17.38-11 65 65 0 0 0-43.75 0 49.078 49.078 0 0 0-17.38 11 50.86 50.86 0 0 0-11.38 17.28 60.235 60.235 0 0 0-4.11 22.72 60.234 60.234 0 0 0 4.11 22.72 50.854 50.854 0 0 0 11.38 17.27A48.883 48.883 0 0 0 662 159a65.004 65.004 0 0 0 43.75 0 48.866 48.866 0 0 0 17.38-11 50.854 50.854 0 0 0 11.38-17.27 60.074 60.074 0 0 0 4.11-22.72 59.996 59.996 0 0 0-4.11-22.72 50.858 50.858 0 0 0-11.42-17.2Zm-40.92-10.61c4.98-.013 9.913.966 14.51 2.88a38.999 38.999 0 0 1 12.46 8.44 50.4 50.4 0 0 1 9.5 13.64 71.012 71.012 0 0 1 5.8 18.44 67.365 67.365 0 0 1 .63 21.43 48.019 48.019 0 0 1-5.78 17.24 38.169 38.169 0 0 1-11.12 12.15 39.828 39.828 0 0 1-15.45 6.38 38.674 38.674 0 0 1-21.72-2.26 37.559 37.559 0 0 1-12.35-8.44 51.288 51.288 0 0 1-9.4-13.64 70.885 70.885 0 0 1-5.8-18.44 69.044 69.044 0 0 1-.73-21.43 46.614 46.614 0 0 1 5.67-17.24 39.336 39.336 0 0 1 11.13-12.26A36.808 36.808 0 0 1 675 58.1c2.369-.4 4.767-.608 7.17-.62ZM895 53.35a8.941 8.941 0 0 0-5.3 1.45 7.51 7.51 0 0 0-2.78 3.68 9.992 9.992 0 0 0-.34 4.94c.309 1.86 1.06 3.62 2.19 5.13.55.69 1.17 1.53 1.86 2.49a20.294 20.294 0 0 1 1.83 3.15c.544 1.189.85 2.473.9 3.78a11.506 11.506 0 0 1-1.11 4.89l-30.42 72.34L826 70.34c-1.87-4.27-2.34-7.24-1.38-8.83a12.998 12.998 0 0 1 5.53-4.5l.27-.14v-1.44h-33.34v1.44l.27.14a57.963 57.963 0 0 1 7.76 4.65c2.35 1.68 4.5 4.74 6.4 9.07l14.73 34.86-20.74 49.61-35.84-84.86c-1.87-4.27-2.33-7.24-1.38-8.83a12.998 12.998 0 0 1 5.53-4.5l.28-.14v-1.44h-33.34v1.44l.25.13a58.458 58.458 0 0 1 7.75 4.65c2.35 1.68 4.51 4.74 6.4 9.07l38 89.71.13.31h14.23l21-49.91 21.15 49.91h14.22l35.39-84.38c1-2.25 1.9-4.69 2.73-7.24a24.191 24.191 0 0 0 1.27-7.36 9.86 9.86 0 0 0-1.76-5.92c-1.26-1.65-3.43-2.49-6.51-2.49ZM1122.28 138.05a8.008 8.008 0 0 0-5-1.46 7.57 7.57 0 0 0-3.17.807 7.54 7.54 0 0 0-2.52 2.073c-1.71 1.92-2.2 4.67-1.47 8.16.66 2.91.54 5.14-.36 6.62a7.918 7.918 0 0 1-3.63 3.24 15.179 15.179 0 0 1-4.85 1.21c-1.71.14-3 .21-3.82.21a49.11 49.11 0 0 1-17.14-3 65.758 65.758 0 0 1-14.7-7.74c11.52-7 20.69-15.69 27.25-25.74 6.7-10.25 10.1-20.77 10.1-31.25 0-6.18-1.22-11.22-3.63-15a27.822 27.822 0 0 0-8.5-8.7 34.205 34.205 0 0 0-10-4.34 52.359 52.359 0 0 0-8.32-1.48c-3.18-.363-6.41.123-9.34 1.41-2.61 1.27-3.93 3.63-3.93 7-.04.995.13 1.988.5 2.914.36.925.92 1.762 1.64 2.456a7.367 7.367 0 0 0 5.25 2c2.1.114 4.17-.52 5.85-1.79A22.098 22.098 0 0 0 1076 72c1-1.29 1.86-2.48 2.7-3.53.31-.427.72-.762 1.21-.968a2.853 2.853 0 0 1 1.53-.202c.79 0 1.63.66 2.5 2 1.1 1.734 1.99 3.59 2.66 5.53a53.22 53.22 0 0 1 2.07 7.44c.54 2.61.81 5.266.82 7.93 0 12.24-2.44 23.25-7.25 32.73a61.826 61.826 0 0 1-19.77 23 93.868 93.868 0 0 1-19.47-21.02 154.801 154.801 0 0 1-14.77-26.72 158.19 158.19 0 0 1-9.15-28.07 119.18 119.18 0 0 1-3.08-25.45c0-6.45.63-11.67 1.86-15.49a21.55 21.55 0 0 1 4.88-8.77 14.244 14.244 0 0 1 7-3.94c2.73-.622 5.53-.934 8.33-.93 1.66 0 3.55 0 5.62.11 1.94.052 3.86.462 5.66 1.21a8.252 8.252 0 0 1 3.94 3.35c.9 1.48 1 3.7.36 6.62-.73 3.49-.23 6.23 1.47 8.16a7.54 7.54 0 0 0 2.52 2.073c.99.498 2.07.773 3.17.807a8.01 8.01 0 0 0 5-1.46 7.213 7.213 0 0 0 2.58-3.81c.43-1.61.47-3.302.11-4.93a15.122 15.122 0 0 0-2.06-5 21.856 21.856 0 0 0-12.59-9 60.407 60.407 0 0 0-15.85-2.05c-4.84-.044-9.66.595-14.32 1.9a26.966 26.966 0 0 0-11.26 6.38 29.41 29.41 0 0 0-7.22 11.67c-1.68 4.76-2.54 10.78-2.54 17.9V53c0 1.062.1 2.12.32 3.16a55.995 55.995 0 0 0-16.75 6.21 54.758 54.758 0 0 0-14.42 11.79 56.081 56.081 0 0 0-9.9 16.74 58.784 58.784 0 0 0-3.68 21.14 48.92 48.92 0 0 0 16.44 37.51 50.425 50.425 0 0 0 17.17 9.91 61.769 61.769 0 0 0 20.09 3.36c8.61.049 17.2-.938 25.57-2.94a96.312 96.312 0 0 0 22-8.25 75.835 75.835 0 0 0 17.82 8.25 67.954 67.954 0 0 0 20.17 2.94c2.11-.01 4.22-.15 6.32-.42a31.73 31.73 0 0 0 13.57-5.09 20.787 20.787 0 0 0 5.57-5.57 15.063 15.063 0 0 0 2-5c.36-1.632.32-3.328-.12-4.94a7.177 7.177 0 0 0-2.55-3.75Zm-65.84 11.72a73.92 73.92 0 0 1-16.27 6.34 76.326 76.326 0 0 1-19.27 2.38 65.583 65.583 0 0 1-19.9-2.89 41.09 41.09 0 0 1-15.56-8.87 40.294 40.294 0 0 1-10.1-15.14c-2.4-6.1-3.61-13.44-3.61-21.83a59.561 59.561 0 0 1 3-19.45 55.971 55.971 0 0 1 7.65-15 44.25 44.25 0 0 1 10.32-10.2 32.598 32.598 0 0 1 10.66-5c1.02 8.09 2.91 16.047 5.64 23.73a152.639 152.639 0 0 0 11.3 25 142.315 142.315 0 0 0 16.23 23 102.967 102.967 0 0 0 19.91 17.93ZM1273.23 84.64l-.5.07v1c0 .73 0 .93 15.25 2 3.34.23 6.5.45 7.06.56a9.766 9.766 0 0 1 5.47 2.69 10.324 10.324 0 0 1 2.47 6c.24 2.743.3 5.499.19 8.25 0 1.1-.05 2.2-.05 3.28v30.17a20.43 20.43 0 0 1-5.06 7.34 38.803 38.803 0 0 1-9 6.39 54.068 54.068 0 0 1-11.68 4.44 60.018 60.018 0 0 1-13.24 1.86 66.502 66.502 0 0 1-23.51-3.31 58.794 58.794 0 0 1-20-11.48 68.297 68.297 0 0 1-15.12-19.37 90.235 90.235 0 0 1-8.92-27.18 90.529 90.529 0 0 1-.62-29.15 69.203 69.203 0 0 1 8.39-24.65 55.141 55.141 0 0 1 16.75-18 58.017 58.017 0 0 1 24.5-9.21c1.94-.27 3.86-.48 5.71-.62a82.375 82.375 0 0 1 22.29 1.45 53.93 53.93 0 0 1 13.85 4.65c3.36 1.595 6.27 4 8.47 7 1.79 2.65 2 5.5.48 8.71a18.212 18.212 0 0 0-1.5 5.89 11.59 11.59 0 0 0 .76 5.34 9.54 9.54 0 0 0 3 4 8.484 8.484 0 0 0 5.32 1.57c1.88.089 3.73-.42 5.3-1.45a9.231 9.231 0 0 0 3-3.53c.68-1.47 1.05-3.063 1.09-4.68.08-1.664-.1-3.33-.53-4.94a26.692 26.692 0 0 0-8.5-13.82 49.918 49.918 0 0 0-14.35-8.62 75.851 75.851 0 0 0-16.28-4.41 98.482 98.482 0 0 0-14.37-1.26c-12.51 0-23.73 1.88-33.35 5.56a66.696 66.696 0 0 0-24.27 15.67 65.878 65.878 0 0 0-14.72 24 90.458 90.458 0 0 0-4.93 30.42 90.459 90.459 0 0 0 4.93 30.42 67.267 67.267 0 0 0 14.51 23.95 65.531 65.531 0 0 0 23.54 15.67c9.27 3.69 20.11 5.56 32.21 5.56 5.33-.035 10.64-.419 15.92-1.15 5.76-.778 11.45-2.039 17-3.77a61.943 61.943 0 0 0 15.46-7.26 32.499 32.499 0 0 0 10.93-11.69l.06-.12-.57-54.24h-42.84ZM462.4 84.64l-.5.07v1.04c0 .73 0 .93 15.25 2 3.34.23 6.5.45 7.07.56a9.82 9.82 0 0 1 5.46 2.69 10.398 10.398 0 0 1 2.47 6c.23 2.744.29 5.499.18 8.25 0 1.1-.05 2.2-.05 3.28v30.17a20.405 20.405 0 0 1-5.06 7.34 38.824 38.824 0 0 1-9 6.39 53.99 53.99 0 0 1-11.68 4.44 59.908 59.908 0 0 1-13.24 1.86 66.434 66.434 0 0 1-23.5-3.31 58.808 58.808 0 0 1-20-11.48 68.202 68.202 0 0 1-15.11-19.37 90.096 90.096 0 0 1-8.92-27.18 90.843 90.843 0 0 1-.63-29.15 69.498 69.498 0 0 1 8.39-24.65 55.152 55.152 0 0 1 16.75-18 58 58 0 0 1 24.51-9.21c1.93-.27 3.85-.48 5.7-.62a82.372 82.372 0 0 1 22.29 1.45 53.791 53.791 0 0 1 13.85 4.65c3.36 1.595 6.27 4 8.47 7 1.79 2.65 1.95 5.5.48 8.71a18.289 18.289 0 0 0-1.5 5.89 11.538 11.538 0 0 0 .77 5.34 9.34 9.34 0 0 0 3 4 8.43 8.43 0 0 0 5.31 1.57 8.888 8.888 0 0 0 5.3-1.45 9.164 9.164 0 0 0 3-3.53 12.19 12.19 0 0 0 1.09-4.68 16.08 16.08 0 0 0-.54-4.94 26.744 26.744 0 0 0-8.5-13.82 49.904 49.904 0 0 0-14.33-8.64 75.571 75.571 0 0 0-16.28-4.41 98.336 98.336 0 0 0-14.36-1.26c-12.52 0-23.74 1.88-33.35 5.56a66.739 66.739 0 0 0-24.28 15.67 65.775 65.775 0 0 0-14.71 24 90.332 90.332 0 0 0-4.94 30.42 90.381 90.381 0 0 0 4.94 30.42 67.117 67.117 0 0 0 14.5 23.95 65.523 65.523 0 0 0 23.54 15.67c9.27 3.69 20.11 5.56 32.21 5.56a121.833 121.833 0 0 0 15.92-1.15 103.502 103.502 0 0 0 17-3.77 61.753 61.753 0 0 0 15.46-7.26A32.518 32.518 0 0 0 505.74 139l.06-.12-.57-54.24H462.4ZM1366.38 157.2a10.011 10.011 0 0 1-2.79-2.29 10.138 10.138 0 0 1-1.88-3.58c-.52-1.85-.76-3.768-.71-5.69V2.88l-.76.47c-1.8 1.11-3.54 2.12-5.19 3a52.55 52.55 0 0 1-5 2.38c-1.65.69-3.43 1.39-5.3 2.08-1.87.69-4 1.46-6.35 2.29l-.34.12v1.48h.5c2.21-.022 4.42.081 6.62.31 1 .11 2.27.58 2.27 3.36v127.27c.05 1.921-.19 3.838-.7 5.69a10.353 10.353 0 0 1-1.89 3.58c-.79.917-1.73 1.691-2.78 2.29-1.14.64-2.39 1.3-3.74 2l-.28.14v1.44h32.3v-1.44l-.28-.14c-1.32-.7-2.58-1.36-3.7-2ZM1479 68.09a49.15 49.15 0 0 0-17.39-11 65 65 0 0 0-43.74 0 49.06 49.06 0 0 0-17.39 11 50.83 50.83 0 0 0-11.38 17.28 60.232 60.232 0 0 0-4.1 22.72 60.232 60.232 0 0 0 4.1 22.72 50.99 50.99 0 0 0 11.38 17.27 48.86 48.86 0 0 0 17.39 11 64.999 64.999 0 0 0 43.74 0 48.97 48.97 0 0 0 17.39-11 50.925 50.925 0 0 0 11.37-17.27 60.035 60.035 0 0 0 4.11-22.72 60.035 60.035 0 0 0-4.11-22.72A51.011 51.011 0 0 0 1479 68.09Zm-41-10.61a37.5 37.5 0 0 1 14.51 2.88A38.866 38.866 0 0 1 1465 68.8a50.327 50.327 0 0 1 9.5 13.64 70.229 70.229 0 0 1 5.8 18.44 66.731 66.731 0 0 1 .63 21.43 47.942 47.942 0 0 1-5.78 17.24A38.01 38.01 0 0 1 1464 151.7a39.858 39.858 0 0 1-15.44 6.38 38.711 38.711 0 0 1-21.74-2.26 37.58 37.58 0 0 1-12.35-8.44 51.242 51.242 0 0 1-9.4-13.64 70.658 70.658 0 0 1-5.8-18.44 69.105 69.105 0 0 1-.73-21.43 46.405 46.405 0 0 1 5.68-17.24 39.139 39.139 0 0 1 11.12-12.26 36.803 36.803 0 0 1 15.44-6.27c2.39-.404 4.8-.61 7.22-.62ZM1656.31 55.85c-1.21-1.66-3.38-2.5-6.46-2.5a8.95 8.95 0 0 0-5.3 1.45 7.521 7.521 0 0 0-2.78 3.68 9.98 9.98 0 0 0-.34 4.94c.31 1.86 1.06 3.62 2.19 5.13.55.69 1.17 1.53 1.86 2.49.7.995 1.32 2.05 1.84 3.15.54 1.19.84 2.474.89 3.78a11.49 11.49 0 0 1-1.11 4.89l-30.42 72.34-35.84-84.86c-1.87-4.27-2.33-7.24-1.38-8.83A13.013 13.013 0 0 1 1585 57l.27-.14v-1.43h-33.33v1.44l.27.14c2.7 1.345 5.3 2.9 7.76 4.65 2.35 1.68 4.5 4.74 6.4 9.07l14.73 34.86-20.74 49.61-35.84-84.86c-1.87-4.27-2.33-7.24-1.38-8.83a12.992 12.992 0 0 1 5.53-4.5l.28-.14v-1.44h-33.35v1.44l.28.14a58.458 58.458 0 0 1 7.75 4.65c2.35 1.68 4.51 4.74 6.4 9.07l38 89.71.13.31h14.23l21-49.91 21.15 49.91h14.22l35.39-84.38c1-2.25 1.9-4.69 2.73-7.24.8-2.373 1.23-4.856 1.27-7.36a9.88 9.88 0 0 0-1.84-5.92Z" />
    <path fill="#CB872C"
          d="m74.86 162 27.58-6.82c-6.12-1.7-12.37-2.34-18-5.35 23.55 0 46.63-1.5 67-15-33.38 0-65.29-6.31-95.4-20.83a58.557 58.557 0 0 1-13.28-8.92c20.33 5.71 40.66 11 62 11-35.47-9.24-67-25.1-90.81-53.9C39.12 77.56 65.6 90 95.59 96.85c-39-18-70.47-42.8-90.42-81.78 2.8.85 3.8 2.46 5 3.67 15.53 16 33.14 29.3 52.07 41 20.78 12.88 42.68 23.11 66.47 29 31 7.66 62.08 8.5 92.92-1.06 7.54-2.34 14.14-2 20 3.85 3 3 7.19 3.85 10.88 5.61.84.41 2.24.48 2.18 1.71-.06 1.23-1.33 1.35-2.19 1.83-4.59 2.61-9.8 3.58-14.69 5.43a31.329 31.329 0 0 0-11.64 7.2c-19.8 20.13-44.25 31.77-71.05 39.32-19.65 5.53-39.72 8.28-60 9.73-6.7.48-13.41.91-20.26-.36Z" />
    <path fill="#CB872C"
          d="M246.75 94.8c1.13.48 2.28.91 3.43 1.36-1.18-.45-2.3-.88-3.43-1.36ZM228.47 86.35h1.16-.1a7.5 7.5 0 0 0-1.06 0Z" />
    <path fill="#CB872C"
          d="M273.56 64.64a153.736 153.736 0 0 0 35.18-52.52l-.81-.5c-.332.14-.648.318-.94.53-.55.51-1.05 1.07-1.55 1.62-15.09 16.7-31.59 31.72-51 43.35-6.21 3.72-13.8 6.07-20.44 9a4611.654 4611.654 0 0 0-16.82 7.42c-7.33 3.26-14.54 6.82-22.08 9.58a80.549 80.549 0 0 1-11.78 3.43c-4 .79-8.07.68-12 1.8-.691.197-1.361.462-2 .79a5.82 5.82 0 0 0 3.16.47c7.28-.29 14.54-.46 21.78-1.36a150.84 150.84 0 0 0 25.57-5.48l.23-.07a31.999 31.999 0 0 1 9.48-1.59 21.33 21.33 0 0 1 9.84 2.35 33.395 33.395 0 0 1 5.36 4 23.697 23.697 0 0 0 5.81 3.25l4.91 2.16a4.293 4.293 0 0 0 4.22.13c1.753-.62 3.493-1.253 5.22-1.9 2.12-.8 4.28-1.57 6.32-2.57a38.234 38.234 0 0 0 11.28-7.69c-6.83 1.06-13.48 2.68-20.4 2.88 7.91-3.94 15.76-7.85 22.63-13.45 6.87-5.6 12.84-12.09 15.66-20.12-4.27 2.46-8.73 5.07-13.23 7.62s-8.7 5.23-13.6 6.87Z" />
</svg>